<svg xmlns="http://www.w3.org/2000/svg" viewBox="0 0 512 512" id="bitcoin-exchange"><path d="M136 256A120 120 0 10256 376 120.136 120.136 0 00136 256zM74.331 426.9L62 437.1a95.838 95.838 0 010-122.2l12.33 10.2a79.834 79.834 0 000 101.8zM136 472a96.086 96.086 0 01-61.1-22l10.2-12.33a79.836 79.836 0 00101.8 0L197.1 450A96.086 96.086 0 01136 472zM96 400V352l40-24 40 24v48l-40 24zm90.9-85.669a79.836 79.836 0 00-101.8 0L74.9 302a95.84 95.84 0 01122.2 0zM210 437.1l-12.33-10.2a79.832 79.832 0 000-101.8L210 314.9a95.836 95.836 0 010 122.2zM376 16A120 120 0 10496 136 120.136 120.136 0 00376 16zm-8.661 223.643a104.011 104.011 0 010-207.286L368.661 48.3a88.01 88.01 0 000 175.394zM376 208H360V192H328V176h8V96h-8V80h32V64h16V80h8V64h16V80a31.987 31.987 0 0121.144 56A31.987 31.987 0 01400 192v16H384V192h-8zm76.324-1.421a103.693 103.693 0 01-67.663 33.064L383.339 223.7a88.01 88.01 0 000-175.394l1.322-15.946a103.953 103.953 0 0167.663 174.222z"></path><path d="M416 112a16.019 16.019 0 00-16-16H352v32h48A16.019 16.019 0 00416 112zM416 160a16.019 16.019 0 00-16-16H352v32h48A16.019 16.019 0 00416 160z"></path><rect width="16" height="16" x="64" y="184"></rect><rect width="16" height="16" x="64" y="216"></rect><path d="M80,94a22.025,22.025,0,0,1,22-22H232a8,8,0,0,0,5.657-13.657l-32-32L194.343,37.657,212.687,56H102A38.043,38.043,0,0,0,64,94v74H80Z"></path><rect width="16" height="16" x="432" y="312"></rect><rect width="16" height="16" x="432" y="280"></rect><path d="M432,418a22.025,22.025,0,0,1-22,22H280a8,8,0,0,0-5.657,13.657l32,32,11.314-11.314L299.313,456H410a38.043,38.043,0,0,0,38-38V344H432Z"></path></svg>