<svg xmlns="http://www.w3.org/2000/svg"  viewBox="0 0 50 50" width="150px" height="150px"><path d="M 16 0 C 7.1618474 0 0 7.1618474 0 16 C 0 24.838153 7.1618474 32 16 32 C 16.735148 32 17.45027 31.955639 18.160156 31.859375 C 18.065728 32.561342 18 33.272519 18 34 C 18 42.82471 25.175283 50 34 50 C 42.824717 50 50 42.82471 50 34 C 50 25.17529 42.824717 18 34 18 C 33.272518 18 32.561343 18.065728 31.859375 18.160156 C 31.955639 17.45027 32 16.735148 32 16 C 32 7.1618474 24.838153 0 16 0 z M 39.292969 0.29296875 L 33.585938 6 L 39.292969 11.707031 L 40.707031 10.292969 L 37.414062 7 L 42 7 C 44.754545 7 47 9.2454545 47 12 L 47 18 L 49 18 L 49 12 C 49 8.1545455 45.845455 5 42 5 L 37.414062 5 L 40.707031 1.7070312 L 39.292969 0.29296875 z M 16 2 C 23.761847 2 30 8.2381526 30 16 C 30 16.934459 29.932093 17.771943 29.761719 18.587891 C 24.343766 20.079345 20.079344 24.343768 18.587891 29.761719 C 17.771943 29.932093 16.934459 30 16 30 C 8.2381526 30 2 23.761847 2 16 C 2 8.2381526 8.2381526 2 16 2 z M 15.984375 3.9863281 A 1.0001 1.0001 0 0 0 15 5 L 15 6.7636719 C 14.599959 6.8377413 14.200823 6.9662622 13.800781 7.0996094 C 13.200781 7.3996094 12.700781 7.6996094 12.300781 8.0996094 C 11.900781 8.5996094 11.500781 8.9996094 11.300781 9.5996094 C 11.000781 10.099609 10.900391 10.700391 10.900391 11.400391 C 10.900391 12.100391 10.999219 12.599609 11.199219 13.099609 C 11.299219 13.599609 11.6 14.000781 12 14.300781 C 12.4 14.600781 12.800391 14.899609 13.400391 15.099609 C 13.810481 15.263646 14.376004 15.427761 15 15.591797 L 15 21.492188 C 14.291812 21.292957 13.705201 21.005983 13.199219 20.5 C 12.699219 20 12.300391 19.199609 12.400391 18.099609 L 10.5 18.099609 C 10.6 19.699609 11.1 20.900781 12 21.800781 C 12.706219 22.595278 13.739143 23.13293 15 23.322266 L 15 25 A 1.0001 1.0001 0 1 0 17 25 L 17 23.380859 C 17.650772 23.337857 18.178888 23.173444 18.699219 23 C 19.299219 22.7 19.799219 22.4 20.199219 22 C 20.599219 21.6 20.999219 21.1 21.199219 20.5 C 21.499219 20 21.599609 19.299609 21.599609 18.599609 C 21.599609 17.899609 21.499219 17.300781 21.199219 16.800781 C 20.999219 16.300781 20.700781 15.899609 20.300781 15.599609 C 19.900781 15.199609 19.499609 15.000781 19.099609 14.800781 C 18.699609 14.600781 18.399609 14.500391 18.099609 14.400391 L 17 14.060547 L 17 8.5546875 C 18.272786 8.8877756 19.015836 9.6748838 19.300781 11.099609 L 21.199219 11.099609 C 20.899219 9.7996094 20.399219 8.7 19.699219 8 C 19.039812 7.3405937 18.108243 6.8716447 17 6.734375 L 17 5 A 1.0001 1.0001 0 0 0 15.984375 3.9863281 z M 15 8.6328125 L 15 13.640625 C 14.791309 13.551867 14.58029 13.460357 14.400391 13.400391 C 14.100391 13.200391 13.799609 13.100391 13.599609 12.900391 C 13.399609 12.700391 13.199609 12.499219 13.099609 12.199219 C 12.999609 11.899219 12.900391 11.599219 12.900391 11.199219 C 12.900391 10.399219 13.099609 9.7007813 13.599609 9.3007812 C 13.991951 8.9084394 14.506312 8.7040324 15 8.6328125 z M 17 16.208984 C 17.261982 16.310549 17.509944 16.427291 17.800781 16.5 C 18.100781 16.6 18.399219 16.8 18.699219 17 C 18.999219 17.2 19.200781 17.399219 19.300781 17.699219 C 19.400781 17.999219 19.5 18.400781 19.5 18.800781 C 19.5 19.200781 19.400781 19.7 19.300781 20 C 19.200781 20.4 18.999219 20.700391 18.699219 20.900391 C 18.499219 21.100391 18.100781 21.300391 17.800781 21.400391 C 17.582726 21.473076 17.285317 21.544502 17 21.617188 L 17 16.208984 z M 34 20 C 41.743837 20 48 26.256168 48 34 C 48 41.743832 41.743837 48 34 48 C 26.256163 48 20 41.743832 20 34 C 20 26.256168 26.256163 20 34 20 z M 33.984375 21.986328 A 1.0001 1.0001 0 0 0 33.083984 22.587891 L 26.21875 34.357422 A 1.0001 1.0001 0 0 0 26.160156 35.539062 A 1.0001 1.0001 0 0 0 26.160156 35.541016 A 1.0001 1.0001 0 0 0 26.181641 35.574219 L 33.113281 45.476562 L 33.115234 45.480469 A 1.0001 1.0001 0 0 0 34.884766 45.480469 L 41.818359 35.574219 A 1.0001 1.0001 0 0 0 41.830078 35.556641 A 1.0001 1.0001 0 0 0 41.832031 35.552734 A 1.0001 1.0001 0 0 0 41.740234 34.287109 L 34.912109 22.582031 A 1.0001 1.0001 0 0 0 33.984375 21.986328 z M 33 26.697266 L 33 35.675781 L 28.511719 34.392578 L 33 26.697266 z M 35 26.697266 L 39.488281 34.392578 L 35 35.675781 L 35 26.697266 z M 1 32 L 1 38 C 1 41.845455 4.1545455 45 8 45 L 11.585938 45 L 8.2929688 48.292969 L 9.7070312 49.707031 L 15.414062 44 L 9.7070312 38.292969 L 8.2929688 39.707031 L 11.585938 43 L 8 43 C 5.2454545 43 3 40.754545 3 38 L 3 32 L 1 32 z M 29.435547 36.734375 L 33 37.753906 L 33 38.042969 L 33 41.828125 L 29.435547 36.734375 z M 38.564453 36.734375 L 35 41.828125 L 35 38.042969 L 35 37.753906 L 38.564453 36.734375 z"/></svg>