<svg xmlns="http://www.w3.org/2000/svg"  viewBox="0 0 48 48" width="144px" height="144px"><path d="M 9.5 8 C 7.0324991 8 5 10.032499 5 12.5 L 5 35.5 C 5 37.967501 7.0324991 40 9.5 40 L 28.542969 40 A 1.50015 1.50015 0 1 0 28.542969 37 L 9.5 37 C 8.6535009 37 8 36.346499 8 35.5 L 8 12.5 C 8 11.653501 8.6535009 11 9.5 11 L 11.935547 11 A 1.50015 1.50015 0 1 0 11.935547 8 L 9.5 8 z M 19.255859 8 A 1.50015 1.50015 0 1 0 19.255859 11 L 38.5 11 C 39.346499 11 40 11.653501 40 12.5 L 40 35.5 C 40 36.346499 39.346499 37 38.5 37 L 34.148438 37 A 1.50015 1.50015 0 1 0 34.148438 40 L 38.5 40 C 40.967501 40 43 37.967501 43 35.5 L 43 12.5 C 43 10.032499 40.967501 8 38.5 8 L 19.255859 8 z M 32.160156 17.005859 C 32.015357 16.994377 31.867422 16.998031 31.716797 17.019531 L 28 17.550781 L 28 23 L 34 23 L 34 19 C 34 17.935125 33.173748 17.086236 32.160156 17.005859 z M 26 17.837891 L 21.716797 18.449219 C 20.731797 18.590219 20 19.434688 20 20.429688 L 20 23 L 26 23 L 26 17.837891 z M 12.476562 19.978516 A 1.50015 1.50015 0 0 0 11 21.5 L 11 26.5 A 1.50015 1.50015 0 1 0 14 26.5 L 14 21.5 A 1.50015 1.50015 0 0 0 12.476562 19.978516 z M 20 25 L 20 27.570312 C 20 28.565313 20.731797 29.409781 21.716797 29.550781 L 26 30.162109 L 26 25 L 20 25 z M 28 25 L 28 30.449219 L 31.716797 30.980469 C 32.921797 31.152469 34 30.217 34 29 L 34 25 L 28 25 z"/></svg>