<svg xmlns="http://www.w3.org/2000/svg"  viewBox="0 0 512 512" width="128px" height="128px"><path d="M 120 16 A 24.0275 24.0275 0 0 0 96 40 L 96 48 L 88 48 A 24.0275 24.0275 0 0 0 64 72 L 64 472 A 24.0275 24.0275 0 0 0 88 496 L 380.98242 496 L 352.18164 480 L 88 480 A 8.00917 8.00917 0 0 1 80 472 L 80 72 A 8.00917 8.00917 0 0 1 88 64 L 376 64 A 8.00917 8.00917 0 0 1 384 72 L 384 318.32227 L 404.3457 307.02148 A 23.99739 23.99739 0 0 1 427.6543 307.02148 L 448 318.32227 L 448 40 A 24.0275 24.0275 0 0 0 424 16 L 120 16 z M 104 80 A 8.00039 8.00039 0 0 0 96 88 L 96 392 A 8.00039 8.00039 0 0 0 104 400 L 320 400 L 320 368 A 23.99944 23.99944 0 0 1 332.3457 347.02148 L 368 327.21094 L 368 88 A 8.00039 8.00039 0 0 0 360 80 L 104 80 z M 234.3418 106.3418 L 245.6582 117.6582 L 221.6582 141.6582 L 210.3418 130.3418 L 234.3418 106.3418 z M 316.42188 120.8457 L 323.57812 135.1543 L 243.57812 175.1543 L 236.42188 160.8457 L 316.42188 120.8457 z M 136 136 L 184 136 A 8.00109 8.00109 0 0 1 190.29102 139.05859 L 269.19922 239.48633 L 271.0293 237.65625 A 24.00066 24.00066 0 0 1 304.9707 237.65625 L 317.65625 250.3418 A 8.00122 8.00122 0 0 1 317.65625 261.6582 L 303.31445 276 L 333.6582 306.3418 A 8.00122 8.00122 0 0 1 333.6582 317.6582 L 309.6582 341.6582 A 7.97772 7.97772 0 0 1 304 344 A 7.97772 7.97772 0 0 1 298.3418 341.6582 L 268 311.31445 L 253.6582 325.6582 A 8.00181 8.00181 0 0 1 242.3418 325.6582 L 229.65625 312.9707 A 24.00066 24.00066 0 0 1 229.65625 279.0293 L 231.48633 277.19922 L 131.05859 198.29102 A 8.00109 8.00109 0 0 1 128 192 L 128 144 A 8.00039 8.00039 0 0 1 136 136 z M 155.31445 152 L 256 252.68555 L 257.80469 250.88281 L 180.11133 152 L 155.31445 152 z M 144 163.31445 L 144 188.11133 L 242.88281 265.80469 L 244.68555 264 L 144 163.31445 z M 334.05859 176.24023 L 337.94141 191.75977 L 273.94141 207.75977 L 270.05859 192.24023 L 334.05859 176.24023 z M 149.4707 232.41016 L 154.5293 247.58984 L 130.5293 255.58984 L 125.4707 240.41016 L 149.4707 232.41016 z M 287.875 246.63086 A 8.00653 8.00653 0 0 0 282.34375 248.9707 L 240.9707 290.34375 A 8.00771 8.00771 0 0 0 240.9707 301.65625 L 248 308.68555 L 300.68555 256 L 293.65625 248.9707 A 8.00653 8.00653 0 0 0 287.875 246.63086 z M 169.00781 260.11523 L 182.99219 267.88477 L 142.99219 339.88477 L 129.00781 332.11523 L 169.00781 260.11523 z M 192.1543 286.42969 L 207.8457 289.57031 L 191.8457 369.57031 L 176.1543 366.42969 L 192.1543 286.42969 z M 292.00195 287.31445 L 279.31445 300 L 304 324.68555 L 316.6875 312 L 292.00195 287.31445 z M 416.05469 320 A 8.00128 8.00128 0 0 0 412.11523 321.00781 L 340.11523 361.00781 A 7.99986 7.99986 0 0 0 336 368 L 336 448 A 7.99986 7.99986 0 0 0 340.11523 454.99219 L 412.11523 494.99219 A 7.99788 7.99788 0 0 0 419.88477 494.99219 L 491.88477 454.99219 A 7.99986 7.99986 0 0 0 496 448 L 496 368 A 7.99986 7.99986 0 0 0 491.88477 361.00781 L 419.88477 321.00781 A 8.00128 8.00128 0 0 0 416.05469 320 z M 416 337.15039 L 480 372.70703 L 480 443.29297 L 416 478.84961 L 352 443.29297 L 352 372.70703 L 416 337.15039 z M 416.32227 360.00586 A 8.00293 8.00293 0 0 0 412.42188 360.8457 L 380.42188 376.8457 L 387.57812 391.1543 L 415.64844 377.11914 L 448 396.5293 L 448 424 L 464 424 L 464 392 A 8.00153 8.00153 0 0 0 460.11523 385.14062 L 420.11523 361.14062 A 8.00293 8.00293 0 0 0 416.32227 360.00586 z M 96 416 L 96 432 L 112 432 L 112 416 L 96 416 z M 128 416 L 128 432 L 144 432 L 144 416 L 128 416 z M 160 416 L 160 432 L 176 432 L 176 416 L 160 416 z M 192 416 L 192 432 L 208 432 L 208 416 L 192 416 z M 96 448 L 96 464 L 256 464 L 256 448 L 96 448 z"/></svg>