<svg xmlns="http://www.w3.org/2000/svg"  viewBox="0 0 50 50" width="150px" height="150px"><path d="M 21 2 C 10.519531 2 2 10.519531 2 21 C 2 31.480469 10.519531 40 21 40 C 25.882813 40 30.320313 38.125 33.6875 35.09375 L 46.28125 47.71875 C 46.679688 48.117188 47.320313 48.117188 47.71875 47.71875 C 48.117188 47.320313 48.117188 46.679688 47.71875 46.28125 L 35.09375 33.6875 C 38.125 30.320313 40 25.882813 40 21 C 40 10.519531 31.480469 2 21 2 Z M 21 4 C 25.335938 4 29.28125 5.617188 32.28125 8.28125 L 8.28125 32.28125 C 5.617188 29.28125 4 25.335938 4 21 C 4 11.597656 11.597656 4 21 4 Z M 19.8125 8 L 19.8125 10.625 C 17.863281 10.859375 14.46875 12.460938 14.46875 16.53125 C 14.46875 19.078125 15.71875 20.347656 17.375 21.09375 L 19.28125 19.1875 C 17.960938 18.644531 17.03125 17.820313 17.03125 16.28125 C 17.03125 15.203125 17.472656 12.84375 21 12.84375 C 22.488281 12.84375 23.523438 13.417969 24.1875 14.28125 L 25.8125 12.65625 C 25.015625 11.683594 23.878906 10.972656 22.1875 10.6875 L 22.1875 8 Z M 33.71875 9.71875 C 36.382813 12.71875 38 16.664063 38 21 C 38 25.621094 36.171875 29.8125 33.1875 32.875 C 33.183594 32.878906 33.160156 32.871094 33.15625 32.875 C 33.132813 32.894531 33.113281 32.914063 33.09375 32.9375 C 33.035156 32.984375 32.984375 33.035156 32.9375 33.09375 C 32.914063 33.125 32.894531 33.15625 32.875 33.1875 C 29.8125 36.171875 25.621094 38 21 38 C 16.664063 38 12.71875 36.382813 9.71875 33.71875 Z M 24.71875 20.8125 L 22.84375 22.6875 C 24.378906 23.234375 25.53125 24.074219 25.53125 25.90625 C 25.53125 27.835938 24.65625 29.53125 21 29.53125 C 19.28125 29.53125 18.164063 28.90625 17.4375 28.09375 L 15.75 29.78125 C 17.019531 31.089844 18.65625 31.546875 19.8125 31.71875 L 19.8125 34 L 22.1875 34 L 22.1875 31.75 C 23.941406 31.582031 28.0625 30.308594 28.0625 25.65625 C 28.058594 23.007813 26.613281 21.632813 24.71875 20.8125 Z"/></svg>