<svg xmlns="http://www.w3.org/2000/svg"  viewBox="0 0 50 50" width="150px" height="150px"><path d="M 7 6 C 4.2504839 6 2 8.2504839 2 11 L 2 17 L 2 23 L 2 25 L 2 29.923828 L 2 39 C 2 41.761 4.239 44 7 44 L 43 44 C 45.761 44 48 41.761 48 39 L 48 29.923828 L 48 25 L 48 23 L 48 17 L 48 11 C 48 8.2504839 45.749516 6 43 6 L 7 6 z M 7 8 L 43 8 C 44.668484 8 46 9.3315161 46 11 L 46 13.029297 C 45.160943 12.392748 44.127936 12 43 12 L 7 12 C 5.8720637 12 4.8390569 12.392748 4 13.029297 L 4 11 C 4 9.3315161 5.3315161 8 7 8 z M 7 14 L 43 14 C 44.668484 14 46 15.331516 46 17 L 46 19.029297 C 45.160943 18.392748 44.127936 18 43 18 L 7 18 C 5.8720637 18 4.8390569 18.392748 4 19.029297 L 4 17 C 4 15.331516 5.3315161 14 7 14 z M 7 20 L 43 20 C 44.668484 20 46 21.331516 46 23 L 46 25 L 35.615234 25 C 33.447234 25 31.464141 26.225062 30.494141 28.164062 L 30.121094 28.912109 C 29.151094 30.851109 27.169 32 25 32 C 22.831 32 20.849859 30.851109 19.880859 28.912109 L 19.507812 28.164062 C 18.537813 26.224063 16.553766 25 14.384766 25 L 4 25 L 4 23 C 4 21.331516 5.3315161 20 7 20 z M 4 27 L 14.384766 27 C 15.804766 27 17.081797 27.789547 17.716797 29.060547 L 18.089844 29.806641 C 19.383844 32.392641 22.032 34 25 34 C 27.967 34 30.614156 32.393641 31.910156 29.806641 L 32.285156 29.058594 C 32.919156 27.789594 34.196234 27 35.615234 27 L 46 27 L 46 29.923828 L 46 39 C 46 40.654 44.654 42 43 42 L 7 42 C 5.346 42 4 40.654 4 39 L 4 29.923828 L 4 27 z"/></svg>